<?xml version="1.0" encoding="utf-8"?>
<!-- Generator: Adobe Illustrator 26.3.1, SVG Export Plug-In . SVG Version: 6.00 Build 0)  -->
<svg version="1.1" id="Layer_1" xmlns="http://www.w3.org/2000/svg" xmlns:xlink="http://www.w3.org/1999/xlink" x="0px" y="0px"
	 viewBox="0 0 18 18" style="enable-background:new 0 0 18 18;" xml:space="preserve">
<style type="text/css">
	.st0{fill:#005983;}
</style>
<path class="st0" d="M6.8,6.8C7,6.7,7,6.7,8.1,6.7c1,0,1,0,1.1,0.1C9.4,6.8,9.5,7,9.5,7.2c0,0.2-0.1,0.4-0.3,0.5
	C9.2,7.8,9.1,7.8,8.1,7.8c-0.6,0-1.1,0-1.1,0C6.7,7.6,6.5,7.1,6.8,6.8L6.8,6.8z M9,10.2c-1.9,0-2,0-2.2,0.1
	c-0.1,0.1-0.2,0.3-0.2,0.5c0,0.2,0.2,0.4,0.3,0.4c0.1,0,0.5,0.1,2,0l1.7,0l0.3-0.1c0.3-0.2,0.4-0.6,0.1-0.9
	C10.9,10.2,11,10.2,9,10.2L9,10.2z M17,14.9c-0.1,1-0.8,1.8-1.8,2.1C14.9,17,14.8,17,9,17c-5.6,0-5.9,0-6.1-0.1
	c-0.3-0.1-0.6-0.2-0.8-0.4c-0.2-0.1-0.5-0.4-0.6-0.6c-0.1-0.2-0.3-0.5-0.4-0.8C1,14.9,1,14.9,1,9c0-5.8,0-6,0.1-6.2
	C1.3,1.9,2,1.2,2.9,1C3.1,1,14.7,1,15,1c0.8,0.2,1.4,0.6,1.7,1.3C17,2.9,17,2.3,17,8.8C17,12.9,17,14.6,17,14.9z M13.9,8.2
	c0-0.2-0.2-0.3-0.3-0.4c0,0-0.3,0-0.6-0.1c-0.4,0-0.5,0-0.6-0.1c-0.2-0.1-0.3-0.3-0.3-0.7c0-0.7-0.3-1.4-0.9-2
	c-0.4-0.4-0.9-0.7-1.5-0.9C9.7,4.1,9.4,4,8.4,4C6.9,4,6.5,4,6,4.3C5,4.6,4.4,5.4,4.1,6.5C4.1,6.7,4,7,4,8.8c0,2.2,0,2.6,0.1,3
	c0.3,1.1,1.3,1.9,2.3,2.1c0.3,0.1,4.4,0.1,4.8,0c0.7-0.1,1.3-0.4,1.8-0.9c0.4-0.4,0.6-0.8,0.8-1.4C14,11.2,14,8.4,13.9,8.2L13.9,8.2
	z"/>
</svg>
