<?xml version="1.0" encoding="utf-8"?>
<!-- Generator: Adobe Illustrator 26.3.1, SVG Export Plug-In . SVG Version: 6.00 Build 0)  -->
<svg version="1.1" id="Layer_1" xmlns="http://www.w3.org/2000/svg" xmlns:xlink="http://www.w3.org/1999/xlink" x="0px" y="0px"
	 viewBox="0 0 18 18" style="enable-background:new 0 0 18 18;" xml:space="preserve">
<style type="text/css">
	.st0{fill:#005983;}
</style>
<path class="st0" d="M15.5,3C16.3,3,17,3.7,17,4.5c0,0.5-0.2,0.9-0.6,1.2l-6.8,5.1c-0.4,0.3-0.8,0.3-1.2,0L1.6,5.7
	C1.2,5.4,1,5,1,4.5C1,3.7,1.7,3,2.5,3H15.5z M7.8,11.6c0.7,0.5,1.7,0.5,2.4,0L17,6.5V13c0,1.1-0.9,2-2,2H3c-1.1,0-2-0.9-2-2V6.5
	L7.8,11.6z"/>
</svg>
