<?xml version="1.0" encoding="utf-8"?>
<!-- Generator: Adobe Illustrator 26.3.1, SVG Export Plug-In . SVG Version: 6.00 Build 0)  -->
<svg version="1.1" id="Layer_1" xmlns="http://www.w3.org/2000/svg" xmlns:xlink="http://www.w3.org/1999/xlink" x="0px" y="0px"
	 viewBox="0 0 18 18" style="enable-background:new 0 0 18 18;" xml:space="preserve">
<style type="text/css">
	.st0{fill:#005983;}
</style>
<path class="st0" d="M16.9,12.9L16.2,16c-0.1,0.4-0.5,0.8-1,0.8c-7.9,0-14.3-6.4-14.3-14.3c0-0.5,0.3-0.8,0.8-1l3.2-0.7
	c0.4-0.1,0.8,0.2,1,0.6l1.5,3.4c0.2,0.4,0.1,0.9-0.3,1.1L5.4,7.3c1.1,2.2,2.8,3.9,5,5l1.4-1.7c0.3-0.3,0.7-0.5,1.1-0.3l3.4,1.5
	C16.7,12,17,12.5,16.9,12.9z"/>
</svg>
