<?xml version="1.0" encoding="utf-8"?>
<!-- Generator: Adobe Illustrator 26.3.1, SVG Export Plug-In . SVG Version: 6.00 Build 0)  -->
<svg version="1.1" id="Layer_1" xmlns="http://www.w3.org/2000/svg" xmlns:xlink="http://www.w3.org/1999/xlink" x="0px" y="0px"
	 viewBox="0 0 18 18" style="enable-background:new 0 0 18 18;" xml:space="preserve">
<style type="text/css">
	.st0{fill:#005983;}
</style>
<path class="st0" d="M15.4,5.7c0,0.1,0,0.3,0,0.4c0,4.3-3.3,9.3-9.3,9.3c-1.9,0-3.6-0.5-5-1.5c0.3,0,0.5,0,0.8,0
	c1.5,0,2.9-0.5,4.1-1.4c-1.4,0-2.6-1-3.1-2.3c0.2,0,0.4,0.1,0.6,0.1c0.3,0,0.6,0,0.9-0.1C2.8,10,1.6,8.7,1.6,7.1v0
	c0.4,0.2,0.9,0.4,1.5,0.4C2.2,6.9,1.7,5.9,1.7,4.8c0-0.6,0.2-1.2,0.4-1.7c1.6,2,4,3.3,6.8,3.4C8.8,6.3,8.8,6,8.8,5.8
	c0-1.8,1.5-3.3,3.3-3.3c0.9,0,1.8,0.4,2.4,1c0.7-0.1,1.5-0.4,2.1-0.8c-0.2,0.8-0.8,1.4-1.4,1.8C15.8,4.5,16.4,4.3,17,4
	C16.6,4.7,16,5.3,15.4,5.7L15.4,5.7z"/>
</svg>
